<svg viewBox="0 0 887.2222290039062 400" xmlns="http://www.w3.org/2000/svg"><g><g><g><g><g><line x1="41.171875" y1="376.23400255115575" x2="36.171875" y2="376.23400255115575" style="visibility: inherit;" fill="rgb(0, 0, 0)" stroke="rgb(204, 204, 204)" stroke-width="1px"></line><line x1="41.171875" y1="349.04579587035" x2="36.171875" y2="349.04579587035" style="visibility: inherit;" fill="rgb(0, 0, 0)" stroke="rgb(204, 204, 204)" stroke-width="1px"></line><line x1="41.171875" y1="321.85758918954417" x2="36.171875" y2="321.85758918954417" style="visibility: inherit;" fill="rgb(0, 0, 0)" stroke="rgb(204, 204, 204)" stroke-width="1px"></line><line x1="41.171875" y1="294.6693825087384" x2="36.171875" y2="294.6693825087384" style="visibility: inherit;" fill="rgb(0, 0, 0)" stroke="rgb(204, 204, 204)" stroke-width="1px"></line><line x1="41.171875" y1="267.4811758279326" x2="36.171875" y2="267.4811758279326" style="visibility: inherit;" fill="rgb(0, 0, 0)" stroke="rgb(204, 204, 204)" stroke-width="1px"></line><line x1="41.171875" y1="240.29296914712685" x2="36.171875" y2="240.29296914712685" style="visibility: inherit;" fill="rgb(0, 0, 0)" stroke="rgb(204, 204, 204)" stroke-width="1px"></line><line x1="41.171875" y1="213.1047624663211" x2="36.171875" y2="213.1047624663211" style="visibility: inherit;" fill="rgb(0, 0, 0)" stroke="rgb(204, 204, 204)" stroke-width="1px"></line><line x1="41.171875" y1="185.91655578551527" x2="36.171875" y2="185.91655578551527" style="visibility: inherit;" fill="rgb(0, 0, 0)" stroke="rgb(204, 204, 204)" stroke-width="1px"></line><line x1="41.171875" y1="158.72834910470945" x2="36.171875" y2="158.72834910470945" style="visibility: inherit;" fill="rgb(0, 0, 0)" stroke="rgb(204, 204, 204)" stroke-width="1px"></line><line x1="41.171875" y1="131.54014242390366" x2="36.171875" y2="131.54014242390366" style="visibility: inherit;" fill="rgb(0, 0, 0)" stroke="rgb(204, 204, 204)" stroke-width="1px"></line><line x1="41.171875" y1="104.35193574309797" x2="36.171875" y2="104.35193574309797" style="visibility: inherit;" fill="rgb(0, 0, 0)" stroke="rgb(204, 204, 204)" stroke-width="1px"></line><line x1="41.171875" y1="77.16372906229216" x2="36.171875" y2="77.16372906229216" style="visibility: inherit;" fill="rgb(0, 0, 0)" stroke="rgb(204, 204, 204)" stroke-width="1px"></line><line x1="41.171875" y1="49.97552238148635" x2="36.171875" y2="49.97552238148635" style="visibility: inherit;" fill="rgb(0, 0, 0)" stroke="rgb(204, 204, 204)" stroke-width="1px"></line><line x1="41.171875" y1="22.787315700680537" x2="36.171875" y2="22.787315700680537" style="visibility: inherit;" fill="rgb(0, 0, 0)" stroke="rgb(204, 204, 204)" stroke-width="1px"></line></g><g transform="translate(31.171875, 0)"><text x="0" y="376.23400255115575" dx="0em" dy="0.3em" style="text-anchor: end; visibility: hidden; font-family: Roboto, sans-serif; font-size: 12px; font-weight: 200;" fill="rgb(33, 33, 33)" stroke="none" stroke-width="1px">2.6</text><text x="0" y="349.04579587035" dx="0em" dy="0.3em" style="text-anchor: end; visibility: inherit; font-family: Roboto, sans-serif; font-size: 12px; font-weight: 200;" fill="rgb(33, 33, 33)" stroke="none" stroke-width="1px">2.8</text><text x="0" y="321.85758918954417" dx="0em" dy="0.3em" style="text-anchor: end; visibility: inherit; font-family: Roboto, sans-serif; font-size: 12px; font-weight: 200;" fill="rgb(33, 33, 33)" stroke="none" stroke-width="1px">3</text><text x="0" y="294.6693825087384" dx="0em" dy="0.3em" style="text-anchor: end; visibility: inherit; font-family: Roboto, sans-serif; font-size: 12px; font-weight: 200;" fill="rgb(33, 33, 33)" stroke="none" stroke-width="1px">3.2</text><text x="0" y="267.4811758279326" dx="0em" dy="0.3em" style="text-anchor: end; visibility: inherit; font-family: Roboto, sans-serif; font-size: 12px; font-weight: 200;" fill="rgb(33, 33, 33)" stroke="none" stroke-width="1px">3.4</text><text x="0" y="240.29296914712685" dx="0em" dy="0.3em" style="text-anchor: end; visibility: inherit; font-family: Roboto, sans-serif; font-size: 12px; font-weight: 200;" fill="rgb(33, 33, 33)" stroke="none" stroke-width="1px">3.6</text><text x="0" y="213.1047624663211" dx="0em" dy="0.3em" style="text-anchor: end; visibility: inherit; font-family: Roboto, sans-serif; font-size: 12px; font-weight: 200;" fill="rgb(33, 33, 33)" stroke="none" stroke-width="1px">3.8</text><text x="0" y="185.91655578551527" dx="0em" dy="0.3em" style="text-anchor: end; visibility: inherit; font-family: Roboto, sans-serif; font-size: 12px; font-weight: 200;" fill="rgb(33, 33, 33)" stroke="none" stroke-width="1px">4</text><text x="0" y="158.72834910470945" dx="0em" dy="0.3em" style="text-anchor: end; visibility: inherit; font-family: Roboto, sans-serif; font-size: 12px; font-weight: 200;" fill="rgb(33, 33, 33)" stroke="none" stroke-width="1px">4.2</text><text x="0" y="131.54014242390366" dx="0em" dy="0.3em" style="text-anchor: end; visibility: inherit; font-family: Roboto, sans-serif; font-size: 12px; font-weight: 200;" fill="rgb(33, 33, 33)" stroke="none" stroke-width="1px">4.4</text><text x="0" y="104.35193574309797" dx="0em" dy="0.3em" style="text-anchor: end; visibility: inherit; font-family: Roboto, sans-serif; font-size: 12px; font-weight: 200;" fill="rgb(33, 33, 33)" stroke="none" stroke-width="1px">4.6</text><text x="0" y="77.16372906229216" dx="0em" dy="0.3em" style="text-anchor: end; visibility: inherit; font-family: Roboto, sans-serif; font-size: 12px; font-weight: 200;" fill="rgb(33, 33, 33)" stroke="none" stroke-width="1px">4.8</text><text x="0" y="49.97552238148635" dx="0em" dy="0.3em" style="text-anchor: end; visibility: inherit; font-family: Roboto, sans-serif; font-size: 12px; font-weight: 200;" fill="rgb(33, 33, 33)" stroke="none" stroke-width="1px">5</text><text x="0" y="22.787315700680537" dx="0em" dy="0.3em" style="text-anchor: end; visibility: inherit; font-family: Roboto, sans-serif; font-size: 12px; font-weight: 200;" fill="rgb(33, 33, 33)" stroke="none" stroke-width="1px">5.2</text></g><line x1="41.171875" y1="0" x2="41.171875" y2="377" fill="rgb(0, 0, 0)" stroke="rgb(204, 204, 204)" stroke-width="1px"></line></g></g><g transform="translate(41, 0)" clip-path="url(#clip_0)"><clipPath id="clip_0"><rect width="846" height="377"></rect></clipPath><g><g><g><line x1="23.018746440939555" y1="0" x2="23.018746440939555" y2="377" fill="rgb(0, 0, 0)" stroke="rgb(66, 66, 66)" stroke-width="1px" opacity="0.25"></line><line x1="89.1181305237594" y1="0" x2="89.1181305237594" y2="377" fill="rgb(0, 0, 0)" stroke="rgb(66, 66, 66)" stroke-width="1px" opacity="0.25"></line><line x1="155.21751460657924" y1="0" x2="155.21751460657924" y2="377" fill="rgb(0, 0, 0)" stroke="rgb(66, 66, 66)" stroke-width="1px" opacity="0.25"></line><line x1="221.31689868939912" y1="0" x2="221.31689868939912" y2="377" fill="rgb(0, 0, 0)" stroke="rgb(66, 66, 66)" stroke-width="1px" opacity="0.25"></line><line x1="287.41628277221895" y1="0" x2="287.41628277221895" y2="377" fill="rgb(0, 0, 0)" stroke="rgb(66, 66, 66)" stroke-width="1px" opacity="0.25"></line><line x1="353.5156668550388" y1="0" x2="353.5156668550388" y2="377" fill="rgb(0, 0, 0)" stroke="rgb(66, 66, 66)" stroke-width="1px" opacity="0.25"></line><line x1="419.61505093785865" y1="0" x2="419.61505093785865" y2="377" fill="rgb(0, 0, 0)" stroke="rgb(66, 66, 66)" stroke-width="1px" opacity="0.25"></line><line x1="485.71443502067854" y1="0" x2="485.71443502067854" y2="377" fill="rgb(0, 0, 0)" stroke="rgb(66, 66, 66)" stroke-width="1px" opacity="0.25"></line><line x1="551.8138191034983" y1="0" x2="551.8138191034983" y2="377" fill="rgb(0, 0, 0)" stroke="rgb(66, 66, 66)" stroke-width="1px" opacity="0.25"></line><line x1="617.9132031863182" y1="0" x2="617.9132031863182" y2="377" fill="rgb(0, 0, 0)" stroke="rgb(66, 66, 66)" stroke-width="1px" opacity="0.25"></line><line x1="684.0125872691381" y1="0" x2="684.0125872691381" y2="377" fill="rgb(0, 0, 0)" stroke="rgb(66, 66, 66)" stroke-width="1px" opacity="0.25"></line><line x1="750.1119713519579" y1="0" x2="750.1119713519579" y2="377" fill="rgb(0, 0, 0)" stroke="rgb(66, 66, 66)" stroke-width="1px" opacity="0.25"></line><line x1="816.2113554347777" y1="0" x2="816.2113554347777" y2="377" fill="rgb(0, 0, 0)" stroke="rgb(66, 66, 66)" stroke-width="1px" opacity="0.25"></line></g><g><line x1="0" y1="376.23400255115575" x2="846.050125" y2="376.23400255115575" fill="rgb(0, 0, 0)" stroke="rgb(66, 66, 66)" stroke-width="1px" opacity="0.25"></line><line x1="0" y1="349.04579587035" x2="846.050125" y2="349.04579587035" fill="rgb(0, 0, 0)" stroke="rgb(66, 66, 66)" stroke-width="1px" opacity="0.25"></line><line x1="0" y1="321.85758918954417" x2="846.050125" y2="321.85758918954417" fill="rgb(0, 0, 0)" stroke="rgb(66, 66, 66)" stroke-width="1px" opacity="0.25"></line><line x1="0" y1="294.6693825087384" x2="846.050125" y2="294.6693825087384" fill="rgb(0, 0, 0)" stroke="rgb(66, 66, 66)" stroke-width="1px" opacity="0.25"></line><line x1="0" y1="267.4811758279326" x2="846.050125" y2="267.4811758279326" fill="rgb(0, 0, 0)" stroke="rgb(66, 66, 66)" stroke-width="1px" opacity="0.25"></line><line x1="0" y1="240.29296914712685" x2="846.050125" y2="240.29296914712685" fill="rgb(0, 0, 0)" stroke="rgb(66, 66, 66)" stroke-width="1px" opacity="0.25"></line><line x1="0" y1="213.1047624663211" x2="846.050125" y2="213.1047624663211" fill="rgb(0, 0, 0)" stroke="rgb(66, 66, 66)" stroke-width="1px" opacity="0.25"></line><line x1="0" y1="185.91655578551527" x2="846.050125" y2="185.91655578551527" fill="rgb(0, 0, 0)" stroke="rgb(66, 66, 66)" stroke-width="1px" opacity="0.25"></line><line x1="0" y1="158.72834910470945" x2="846.050125" y2="158.72834910470945" fill="rgb(0, 0, 0)" stroke="rgb(66, 66, 66)" stroke-width="1px" opacity="0.25"></line><line x1="0" y1="131.54014242390366" x2="846.050125" y2="131.54014242390366" fill="rgb(0, 0, 0)" stroke="rgb(66, 66, 66)" stroke-width="1px" opacity="0.25"></line><line x1="0" y1="104.35193574309797" x2="846.050125" y2="104.35193574309797" fill="rgb(0, 0, 0)" stroke="rgb(66, 66, 66)" stroke-width="1px" opacity="0.25"></line><line x1="0" y1="77.16372906229216" x2="846.050125" y2="77.16372906229216" fill="rgb(0, 0, 0)" stroke="rgb(66, 66, 66)" stroke-width="1px" opacity="0.25"></line><line x1="0" y1="49.97552238148635" x2="846.050125" y2="49.97552238148635" fill="rgb(0, 0, 0)" stroke="rgb(66, 66, 66)" stroke-width="1px" opacity="0.25"></line><line x1="0" y1="22.787315700680537" x2="846.050125" y2="22.787315700680537" fill="rgb(0, 0, 0)" stroke="rgb(66, 66, 66)" stroke-width="1px" opacity="0.25"></line></g></g></g><g><g><line x1="0" y1="729.680689401631" x2="846.050125" y2="729.680689401631" fill="rgb(0, 0, 0)" stroke="rgb(153, 153, 153)" stroke-width="1.5px"></line></g></g><g><g><line x1="155.21751460657924" y1="0" x2="155.21751460657924" y2="377" fill="rgb(0, 0, 0)" stroke="rgb(153, 153, 153)" stroke-width="1.5px"></line></g></g><g><g><g><g><g><path stroke="rgb(51, 187, 238)" stroke-width="2px" d="M155.21751460657924,87.77741972947418L155.87850844740746,93.24491752532286L156.53950228823567,96.35500426435742L157.20049612906385,98.49142940536238L157.86148996989206,100.24324677474716L158.52248381072025,101.81274670174037L159.18347765154846,103.30524670774338L159.84447149237664,104.74670216275126L160.50546533320485,106.18408517236547L161.16645917403304,107.61143396359856L161.82745301486125,109.04454528748158L162.48844685568943,110.49776424397703L163.14944069651764,111.95867391585206L163.81043453734583,113.43784984181478L164.47142837817404,114.93355004292606L165.13242221900222,116.44437992030873L165.79341605983043,117.97061210498035L166.45440990065865,119.50974464741962L167.11540374148683,121.05979885738816L167.77639758231504,122.6218355200312L168.43739142314323,124.18992231025972L169.09838526397144,125.76195561488852L169.75937910479962,127.34255068193299L170.42037294562783,128.92314918947537L171.08136678645602,130.51054412110878L171.74236062728423,132.0959616089794L172.4033544681124,133.68772410673134L173.06434830894062,135.27945015411123L173.7253421497688,136.8749399737653L174.38633599059702,138.47048873596427L175.0473298314252,140.0703038474417L175.7083236722534,141.67116150819294L176.36931751308163,143.2766876534202L177.0303113539098,144.88341594701305L177.69130519473802,146.49535884812718L178.3522990355662,148.10882820930883L179.01329287639442,149.72735130205098L179.6742867172226,151.34934654064776L180.3352805580508,152.9765482347913L180.996274398879,154.606525395207L181.6572682397072,156.24153046241568L182.3182620805354,157.88038704420785L182.9792559213636,159.52383226616743L183.6402497621918,161.1709522686477L184.30124360302,162.8231577697204L184.96223744384818,164.4785758320341L185.6232312846764,166.13971147096888L186.28422512550458,167.8048440627384L186.9452189663328,169.47428828366128L187.606212807161,171.14819930183725L188.26720664798918,172.82600509785826L188.9282004888174,174.50746885194675L189.58919432964558,176.19254540967313L190.2501881704738,177.88334380665353L190.91118201130197,179.57606563849083L191.5721758521302,181.27345233658932L192.23316969295837,182.97449083053158L192.89416353378658,184.67983016794958L193.55515737461477,186.38827811449897L194.21615121544298,188.1005878200947L194.87714505627116,189.8164265153265L195.53813889709934,191.5360339948123L196.19913273792756,193.25950838826523L196.86012657875577,194.98605935384867L197.52112041958398,196.7163843562402L198.18211426041216,198.44971258504611L198.84310810124038,200.18611246734565L199.50410194206856,201.92613642806467L200.16509578289677,203.66899460144776L200.82608962372495,205.41515681067816L201.48708346455317,207.16472238561076L202.14807730538135,208.9166232591294L202.80907114620956,210.6723430663338L203.47006498703774,212.430415474078L204.13105882786596,214.19138025976466L204.79205266869414,215.95526024324792L205.45304650952232,217.72198799429057L206.11404035035054,219.49117964824526L206.77503419117875,221.26288332034898L207.43602803200693,223.03736688799387L208.09702187283514,224.814003062842L208.75801571366335,226.59320111896093L209.41900955449154,228.37501591127244L210.08000339531975,230.15879173446027L210.74099723614793,231.9451415424124L211.40199107697615,233.73313886841308L212.06298491780436,235.5241792874631" style="fill: none;" fill="none"></path></g><g><path stroke="rgb(204, 51, 17)" stroke-width="2px" d="M155.21751460657924,72.47838805179L155.87850844740746,86.2762733937641L156.53950228823567,91.27764761081163L157.20049612906385,94.17956565454584L157.86148996989206,96.27383069395648L158.52248381072025,98.07778069392528L159.18347765154846,99.67962015429173L159.84447149237664,101.2457928728133L160.50546533320485,102.74700098934167L161.16645917403304,104.27014959747768L161.82745301486125,105.81969393344858L162.48844685568943,107.39511562169234L163.14944069651764,108.99567500086532L163.81043453734583,110.62021000107978L164.47142837817404,112.27195421977305L165.13242221900222,113.9306942487493L165.79341605983043,115.60847127969124L166.45440990065865,117.30303004405253L167.11540374148683,119.00350613749647L167.77639758231504,120.72451307760373L168.43739142314323,122.45613369297664L169.09838526397144,124.20489949465644L169.75937910479962,125.97161455015237L170.42037294562783,127.75868934304522L171.08136678645602,129.5658175723069L171.74236062728423,131.40670474640442L172.4033544681124,133.26482322400452L173.06434830894062,135.1467017230974L173.7253421497688,137.05837986493867L174.38633599059702,139.0014609772669L175.0473298314252,140.96749716590202L175.7083236722534,142.96102742474994L176.36931751308163,144.97645561559946L177.0303113539098,147.01682324837628L177.69130519473802,149.08836469528367L178.3522990355662,151.18433023247343L179.01329287639442,153.30543895044178L179.6742867172226,155.44974949515228L180.3352805580508,157.61854488409722L180.996274398879,159.81227881935303L181.6572682397072,162.03145642869478L182.3182620805354,164.27468679514158L182.9792559213636,166.54267682508348L183.6402497621918,168.8340221604222L184.30124360302,171.1497330961038L184.96223744384818,173.4878918769718L185.6232312846764,175.8498206215365L186.28422512550458,178.23076722694987L186.9452189663328,180.6354415054783L187.606212807161,183.06099043795732L188.26720664798918,185.5089166587084L188.9282004888174,187.97847510446965L189.58919432964558,190.46737648715566L190.2501881704738,192.97790930003757L190.91118201130197,195.50611383607915L191.5721758521302,198.0545241122998L192.23316969295837,200.62422033258463L192.89416353378658,203.2127907701109L193.55515737461477,205.82376511651609L194.21615121544298,208.45316980187448L194.87714505627116,211.1022739136399L195.53813889709934,213.7709712742703L196.19913273792756,216.45763886827015L196.86012657875577,219.1639314768663L197.52112041958398,221.88720705184522L198.18211426041216,224.6269560150348L198.84310810124038,227.38582972071333L199.50410194206856,230.15939334994337L200.16509578289677,232.9478303229685L200.82608962372495,235.7508782765684L201.48708346455317,238.56887462576086L202.14807730538135,241.39698788105946L202.80907114620956,244.23842260375045L203.47006498703774,247.0891662091446L204.13105882786596,249.95102811436365L204.79205266869414,252.81989898619958L205.45304650952232,255.69808063894072L206.11404035035054,258.58178821099915L206.77503419117875,261.47182895240974L207.43602803200693,264.3642772206448L208.09702187283514,267.2621643025828L208.75801571366335,270.1609314015325L209.41900955449154,273.061986919857L210.08000339531975,275.96293216107415L210.74099723614793,278.86499437204304L211.40199107697615,281.7659911560888L212.06298491780436,284.66506364520853L212.7239787586325,287.5619814255215L213.38497259946072,290.45613170972837L214.04596644028894,293.34610528229575L214.70696028111715,296.2301591763157L215.3679541219453,299.10816388898456L216.02894796277351,301.9787390091042L216.68994180360173,304.84160720637595L217.3509356444299,307.695048524763L218.01192948525812,310.53948702692765L218.67292332608633,313.37286514337785L219.33391716691455,316.19628620336596L219.9949110077427,319.00758790184517L220.6559048485709,321.80777184253645" style="fill: none;" fill="none"></path></g><g><path stroke="rgb(0, 119, 187)" stroke-width="2px" d="M155.21751460657924,98.79562395831245L155.87850844740746,99.31435998212376L156.53950228823567,99.75557802761043L157.20049612906385,100.15237724087793L157.86148996989206,100.5186059376826L158.52248381072025,100.86113311292878L159.18347765154846,101.18539386004858L159.84447149237664,101.49467074112165L160.50546533320485,101.79108791912932L161.16645917403304,102.07614518659389L161.82745301486125,102.35065858038793L162.48844685568943,102.61594673592089L163.14944069651764,102.87335272474947L163.81043453734583,103.12377921743577L164.47142837817404,103.36783520570373L165.13242221900222,103.60627465930759L165.79341605983043,103.8399466171838L166.45440990065865,104.0691953217933L167.11540374148683,104.29478782551435L167.77639758231504,104.51696481920575L168.43739142314323,104.73622638483701L169.09838526397144,104.95293702079569L169.75937910479962,105.1674547840099L170.42037294562783,105.37990321736767L171.08136678645602,105.59044367640135L171.74236062728423,105.7992277492032L172.4033544681124,106.00640395124897L173.06434830894062,106.21218400307042L173.7253421497688,106.41659858606731L174.38633599059702,106.61970048222089L175.0473298314252,106.82165656242107L175.7083236722534,107.0225861269678L176.36931751308163,107.22251019351346L177.0303113539098,107.42151312973682L177.69130519473802,107.61975818692832L178.3522990355662,107.81734474565523L179.01329287639442,108.01433293377349L179.6742867172226,108.21073137399343L180.3352805580508,108.4067459474533L180.996274398879,108.60238694704567L181.6572682397072,108.797716863507L182.3182620805354,108.9928158941557L182.9792559213636,109.1877075677674L183.6402497621918,109.38237564871312L184.30124360302,109.57687451468603L184.96223744384818,109.77125673114003L185.6232312846764,109.96549986790889L186.28422512550458,110.15963448184065L186.9452189663328,110.35371304094761L187.606212807161,110.54779979787257L188.26720664798918,110.74190841360682L188.9282004888174,110.9360259354858L189.58919432964558,111.13016422114512L190.2501881704738,111.32437246595079L190.91118201130197,111.518672118638L191.5721758521302,111.71306884086823L192.23316969295837,111.90760064628611L192.89416353378658,112.10225467437442L193.55515737461477,112.2970528531969L194.21615121544298,112.49200232219941L194.87714505627116,112.68711085820118L195.53813889709934,112.88232216147902L196.19913273792756,113.0777097341742L196.86012657875577,113.27329448301217L197.52112041958398,113.46906825621973L198.18211426041216,113.66503455268862L198.84310810124038,113.86120466937938L199.50410194206856,114.05757250048742L200.16509578289677,114.25416241864555L200.82608962372495,114.45091980631611L201.48708346455317,114.64788288218132L202.14807730538135,114.8450644662995L202.80907114620956,115.0424223946772L203.47006498703774,115.23999214021524L204.13105882786596,115.43778938887864L204.79205266869414,115.63582548046458L205.45304650952232,115.83410593719275L206.11404035035054,116.03268868115379L206.77503419117875,116.2315127619574L207.43602803200693,116.43056320479164L208.09702187283514,116.62984741680413L208.75801571366335,116.8293609350223L209.41900955449154,117.02909625925949L210.08000339531975,117.2290446365184L210.74099723614793,117.42924860879045L211.40199107697615,117.62969532084982L212.06298491780436,117.83042460065838L212.7239787586325,118.031403749988L213.38497259946072,118.23262738504481L214.04596644028894,118.43408283419495L214.70696028111715,118.63579968912293L215.3679541219453,118.8377657457737L216.02894796277351,119.04000287961888L216.68994180360173,119.24249234261283L217.3509356444299,119.4452533399443L218.01192948525812,119.64830854742813L218.67292332608633,119.85160544173719L219.33391716691455,120.05517827444172L219.9949110077427,120.2590097720687L220.6559048485709,120.46313644734465" style="fill: none;" fill="none"></path></g><g><path stroke="rgb(255, 112, 67)" stroke-width="2px" d="M155.21751460657924,96.9456764331366L155.87850844740746,97.99226049068855L156.53950228823567,98.75421145779778L157.20049612906385,99.39731364368454L157.86148996989206,99.97165098721571L158.52248381072025,100.49889331007923L159.18347765154846,100.98717429559359L159.84447149237664,101.44669732958864L160.50546533320485,101.88157228247464L161.16645917403304,102.2974767515382L161.82745301486125,102.70027860243276L162.48844685568943,103.09104963246402L163.14944069651764,103.47280217349778L163.81043453734583,103.84718011384531L164.47142837817404,104.21544525433339L165.13242221900222,104.5784416803453L165.79341605983043,104.93718355609363L166.45440990065865,105.29285561598806L167.11540374148683,105.6462593512246L167.77639758231504,105.99769922317331L168.43739142314323,106.34705375875157L169.09838526397144,106.6950211441537L169.75937910479962,107.04183088655658L170.42037294562783,107.3880649640675L171.08136678645602,107.73390037166241L171.74236062728423,108.07952230665492L172.4033544681124,108.42506919292306L173.06434830894062,108.77090615606805L173.7253421497688,109.1168428195418L174.38633599059702,109.46337607469886L175.0473298314252,109.8101538269496L175.7083236722534,110.15760625289974L176.36931751308163,110.50554697087036L177.0303113539098,110.85403040833545L177.69130519473802,111.20324425174731L178.3522990355662,111.55309902574524L179.01329287639442,111.90370574391514L179.6742867172226,112.25519863369604L180.3352805580508,112.6075374136404L180.996274398879,112.96088247912031L181.6572682397072,113.31523040091241L182.3182620805354,113.67050409901648L182.9792559213636,114.02663364988393L183.6402497621918,114.38399647720328L184.30124360302,114.74239354618044L184.96223744384818,115.10200617154824L185.6232312846764,115.46271259216216L186.28422512550458,115.82461404010631L186.9452189663328,116.1876830528459L187.606212807161,116.55187048891317L188.26720664798918,116.91702031321783L188.9282004888174,117.28320065324505L189.58919432964558,117.6504080846575L190.2501881704738,118.01862962263814L190.91118201130197,118.38784963018496L191.5721758521302,118.75810834326232L192.23316969295837,119.12942922545417L192.89416353378658,119.5017042655464L193.55515737461477,119.87501930818472L194.21615121544298,120.24941120847198L194.87714505627116,120.62469441711949L195.53813889709934,121.00102177518569L196.19913273792756,121.3782373571683L196.86012657875577,121.75641329806717L197.52112041958398,122.13550209114982L198.18211426041216,122.51554431142792L198.84310810124038,122.89641422120572L199.50410194206856,123.27814024201724L200.16509578289677,123.66073462825517L200.82608962372495,124.04410355748516L201.48708346455317,124.42822460529612L202.14807730538135,124.8131997075185L202.80907114620956,125.19889249386281L203.47006498703774,125.58530920541679L204.13105882786596,125.97239121863835L204.79205266869414,126.36008384694354L205.45304650952232,126.74840952306181L206.11404035035054,127.13724968747181L206.77503419117875,127.52663157271L207.43602803200693,127.91662238255115L208.09702187283514,128.30708456394393L208.75801571366335,128.698127464819L209.41900955449154,129.08961937879292L210.08000339531975,129.48163580156978L210.74099723614793,129.87406111647516L211.40199107697615,130.2668895562937L212.06298491780436,130.660058081271L212.7239787586325,131.05367259721146L213.38497259946072,131.44762816506474L214.04596644028894,131.84184926069653L214.70696028111715,132.23649601423833L215.3679541219453,132.63138782722933L216.02894796277351,133.02663040142747L216.68994180360173,133.4221524476294L217.3509356444299,133.81794495461494L218.01192948525812,134.2139844182063L218.67292332608633,134.61023146422855L219.33391716691455,135.00679334891683L219.9949110077427,135.40351876802976L220.6559048485709,135.80044820027427" style="fill: none;" fill="none"></path></g></g></g></g><g opacity="0.2"><g><g><g><path stroke="rgb(51, 187, 238)" stroke-width="2px" d="M155.21751460657924,87.77741972947418L155.87850844740746,98.70694782339389L156.53950228823567,102.56585059228009L157.20049612906385,104.88789482111954L157.86148996989206,107.23301558799336L158.52248381072025,109.6367352042578L159.18347765154846,112.2289564289602L159.84447149237664,114.79661021569908L160.50546533320485,117.63152402017857L161.16645917403304,120.39351337160006L161.82745301486125,123.29707339455817L162.48844685568943,126.38757930428902L163.14944069651764,129.3760558014747L163.81043453734583,132.53306881239448L164.47142837817404,135.71698284377564L165.13242221900222,138.9263718174251L165.79341605983043,142.18379369748877L166.45440990065865,145.44076182540005L167.11540374148683,148.69721137942295L167.77639758231504,152.0055183222871L168.43739142314323,155.2244360911361L169.09838526397144,158.41392479181775L169.75937910479962,161.71853689572694L170.42037294562783,164.8438520777175L171.08136678645602,168.13543501268032L171.74236062728423,171.22023660963862L172.4033544681124,174.51946850945555L173.06434830894062,177.65956304726586L173.7253421497688,180.9066782712973L174.38633599059702,184.05377355660121L175.0473298314252,187.3279842663022L175.7083236722534,190.51160659987116L176.36931751308163,193.81450092777501L177.0303113539098,197.0136156562603L177.69130519473802,200.35277774548496L178.3522990355662,203.57519588808074L179.01329287639442,206.92871599184087L179.6742867172226,210.23647194994862L180.3352805580508,213.61919424579992L180.996274398879,216.92020874335827L181.6572682397072,220.31829379065388L182.3182620805354,223.68108340266934L182.9792559213636,227.0845810649252L183.6402497621918,230.4605294893592L184.30124360302,233.90771700171382L184.96223744384818,237.28389230222393L185.6232312846764,240.78290479255182L186.28422512550458,244.2162852751275L186.9452189663328,247.6747517695551L187.606212807161,251.15172486962544L188.26720664798918,254.6116174422462L188.9282004888174,258.0692088432371L189.58919432964558,261.5334768830413L190.2501881704738,265.11753549106885L190.91118201130197,268.5131897232625L191.5721758521302,272.06217977208615L192.23316969295837,275.56689657518655L192.89416353378658,279.1171506478632L193.55515737461477,282.6098754297941L194.21615121544298,286.1538417940737L194.87714505627116,289.6876311457932L195.53813889709934,293.24439980294306L196.19913273792756,296.816401568065L196.86012657875577,300.3488944850635L197.52112041958398,303.9325317518067L198.18211426041216,307.47614159653807L198.84310810124038,311.0311924776825L199.50410194206856,314.6297711545856L200.16509578289677,318.18443310531376L200.82608962372495,321.77737229118037L201.48708346455317,325.38496118939463L202.14807730538135,328.9264319168363L202.80907114620956,332.57745137820507L203.47006498703774,336.13311806584204L204.13105882786596,339.73289594486204L204.79205266869414,343.3409710060967L205.45304650952232,346.95073143246873L206.11404035035054,350.5381607707709L206.77503419117875,354.1346327412523L207.43602803200693,357.75722787136255L208.09702187283514,361.33726753175483L208.75801571366335,364.95402870562043L209.41900955449154,368.5808048377059L210.08000339531975,372.160520389418L210.74099723614793,375.794135214657L211.40199107697615,379.3570295258637" style="fill: none;" fill="none"></path></g><g><path stroke="rgb(204, 51, 17)" stroke-width="2px" d="M155.21751460657924,72.47838805179L155.87850844740746,100.06036085041467L156.53950228823567,101.26539692361344L157.20049612906385,102.86791988228042L157.86148996989206,104.62996913337035L158.52248381072025,107.07050749571205L159.18347765154846,109.25707429620374L159.84447149237664,112.1652366624215L160.50546533320485,114.7027483418964L161.16645917403304,117.91012784172823L161.82745301486125,121.23016751881774L162.48844685568943,124.6211221751476L163.14944069651764,128.078000537042L163.81043453734583,131.5919220266617L164.47142837817404,135.2236894324232L165.13242221900222,138.61367176271233L165.79341605983043,142.22586300418627L166.45440990065865,145.85263913627176L167.11540374148683,149.32293559752875L167.77639758231504,153.09860725732477L168.43739142314323,156.72719839801977L169.09838526397144,160.5276967827235L169.75937910479962,164.39548012944874L170.42037294562783,168.37177506232436L171.08136678645602,172.39889023626438L171.74236062728423,176.83535467337012L172.4033544681124,180.9291065919712L173.06434830894062,185.25219781272267L173.7253421497688,189.81616660464186L174.38633599059702,194.51340888588305L175.0473298314252,199.043151801167L175.7083236722534,203.78149106306492L176.36931751308163,208.41692581898093L177.0303113539098,213.21642438884348L177.69130519473802,218.30165717122136L178.3522990355662,223.2375082628684L179.01329287639442,228.26903623692758L179.6742867172226,233.2997215284181L180.3352805580508,238.44533575792804L180.996274398879,243.67826486589942L181.6572682397072,249.0022685130233L182.3182620805354,254.34121357030702L182.9792559213636,259.7779746272926L183.6402497621918,265.2242968903458L184.30124360302,270.7809781590268L184.96223744384818,276.32015755897385L185.6232312846764,281.9831788856475L186.28422512550458,287.490271526249L186.9452189663328,293.275708701456L187.606212807161,298.9885779431532L188.26720664798918,304.83449379809633L188.9282004888174,310.7052363779472L189.58919432964558,316.518125558372L190.2501881704738,322.5050611000953L190.91118201130197,328.3402489577219L191.5721758521302,334.36225305864906L192.23316969295837,340.5001584236365L192.89416353378658,346.56118520966675L193.55515737461477,352.8766048988314L194.21615121544298,359.0227102134293L194.87714505627116,365.2946345177034L195.53813889709934,371.6144620849195L196.19913273792756,377.88907649123973" style="fill: none;" fill="none"></path></g><g><path stroke="rgb(0, 119, 187)" stroke-width="2px" d="M155.21751460657924,98.79562395831245L155.87850844740746,99.83257726992944L156.53950228823567,100.6366909056492L157.20049612906385,101.34039567222511L157.86148996989206,101.97986209837387L158.52248381072025,102.5686379269303L159.18347765154846,103.12416020489226L159.84447149237664,103.65096645378343L160.50546533320485,104.15177918651789L161.16645917403304,104.62886716385745L161.82745301486125,105.08073948587298L162.48844685568943,105.51666566081981L163.14944069651764,105.9422203579984L163.81043453734583,106.35662571657608L164.47142837817404,106.7591038757203L165.13242221900222,107.15438682216278L165.79341605983043,107.54707689916323L166.45440990065865,107.93153461568511L167.11540374148683,108.31709430171985L167.77639758231504,108.6963662793576L168.43739142314323,109.07570307873144L169.09838526397144,109.4541323738005L169.75937910479962,109.83295059928591L170.42037294562783,110.2080091640803L171.08136678645602,110.58073414637686L171.74236062728423,110.95151447659185L172.4033544681124,111.3208687286137L173.06434830894062,111.69113048494032L173.7253421497688,112.05795668925614L174.38633599059702,112.42212520239391L175.0473298314252,112.78733086330845L175.7083236722534,113.15273098943118L176.36931751308163,113.51560306784788L177.0303113539098,113.87815103758432L177.69130519473802,114.24342152023493L178.3522990355662,114.60979397239845L179.01329287639442,114.97623124629798L179.6742867172226,115.34104797679625L180.3352805580508,115.71182830701125L180.996274398879,116.08170113292152L181.6572682397072,116.45280557181675L182.3182620805354,116.82611394973776L182.9792559213636,117.19955197113087L183.6402497621918,117.5714990925948L184.30124360302,117.94500193572398L184.96223744384818,118.32019014399047L185.6232312846764,118.69382263059175L186.28422512550458,119.0682977997617L186.9452189663328,119.44478244274926L187.606212807161,119.82405442038697L188.26720664798918,120.20384497191317L188.9282004888174,120.5828576626067L189.58919432964558,120.96232410545262L190.2501881704738,121.3442537742685L190.91118201130197,121.72735023433329L191.5721758521302,122.11083562481437L192.23316969295837,122.49652495432125L192.89416353378658,122.88169570993969L193.55515737461477,123.26829254375129L194.21615121544298,123.65553759492337L194.87714505627116,124.04349568519207L195.53813889709934,124.42834233213024L196.19913273792756,124.81779132232808L196.86012657875577,125.20886085592724L197.52112041958398,125.59980074605426L198.18211426041216,125.99132403180577L198.84310810124038,126.38394928707015L199.50410194206856,126.77657454233453L200.16509578289677,127.17120927141649L200.82608962372495,127.56260291369591L201.48708346455317,127.95691353409765L202.14807730538135,128.3525205892204L202.80907114620956,128.74559959663713L203.47006498703774,129.1415307604401L204.13105882786596,129.5390176459084L204.79205266869414,129.93780096609768L205.45304650952232,130.33749179059166L206.11404035035054,130.74204424528952L206.77503419117875,131.14264257408826L207.43602803200693,131.54259268552644L208.09702187283514,131.9435799447415L208.75801571366335,132.34469684742862L209.41900955449154,132.74568410664364L210.08000339531975,133.1464120789145L210.74099723614793,133.5510293553484L211.40199107697615,133.9551280578939L212.06298491780436,134.36305124286645L212.7239787586325,134.7688353105493L213.38497259946072,135.1746841999682L214.04596644028894,135.57994969376261L214.70696028111715,135.9882618091515L215.3679541219453,136.39605535065195L216.02894796277351,136.80631211812238L216.68994180360173,137.2154669160799L217.3509356444299,137.6268904747992L218.01192948525812,138.04097172469665L218.67292332608633,138.45083956175074L219.33391716691455,138.8644022377598L219.9949110077427,139.276927765992L220.6559048485709,139.6934722418594" style="fill: none;" fill="none"></path></g><g><path stroke="rgb(255, 112, 67)" stroke-width="2px" d="M155.21751460657924,96.9456764331366L155.87850844740746,99.0377979642011L156.53950228823567,100.27582830105011L157.20049612906385,101.32276416001906L157.86148996989206,102.26326272839135L158.52248381072025,103.12720682648671L159.18347765154846,103.90662338077081L159.84447149237664,104.65051762369866L160.50546533320485,105.34495288201919L161.16645917403304,106.02195109334183L161.82745301486125,106.70620933910223L162.48844685568943,107.36382585134544L163.14944069651764,108.0241648765028L163.81043453734583,108.68016084534472L164.47142837817404,109.33265644043988L165.13242221900222,109.9800311183869L165.79341605983043,110.62850776584686L166.45440990065865,111.28515195204928L167.11540374148683,111.94743562928822L167.77639758231504,112.60868215875034L168.43739142314323,113.26124257558152L169.09838526397144,113.9224891050436L169.75937910479962,114.58451349533834L170.42037294562783,115.25658525472106L171.08136678645602,115.93099059660162L171.74236062728423,116.60863702528475L172.4033544681124,117.28900596688206L173.06434830894062,117.97890370367895L173.7253421497688,118.66387498853592L174.38633599059702,119.36349598574057L175.0473298314252,120.05378265295374L175.7083236722534,120.75800599341805L176.36931751308163,121.45782145583087L177.0303113539098,122.16055389636594L177.69130519473802,122.87100012349119L178.3522990355662,123.58008509415934L179.01329287639442,124.29474473412795L179.6742867172226,125.01627547811799L180.3352805580508,125.73851926120464L180.996274398879,126.46918986997797L181.6572682397072,127.20232370472125L182.3182620805354,127.9348741438401L182.9792559213636,128.66684118733446L183.6402497621918,129.41721760386744L184.30124360302,130.1620841728361L184.96223744384818,130.91777597172535L185.6232312846764,131.67106936638066L186.28422512550458,132.43194690415405L186.9452189663328,133.19463945053687L187.606212807161,133.95798021428018L188.26720664798918,134.71645934781964L188.9282004888174,135.48083725933975L189.58919432964558,136.24767839682988L190.2501881704738,137.01646418640155L190.91118201130197,137.7870001628466L191.5721758521302,138.5622681260234L192.23316969295837,139.34149021509938L192.89416353378658,140.11734157390063L193.55515737461477,140.90051778887576L194.21615121544298,141.6884908123187L194.87714505627116,142.4682314752831L195.53813889709934,143.2593807637925L196.19913273792756,144.04365894828052L196.86012657875577,144.8346137715818L197.52112041958398,145.62498519925862L198.18211426041216,146.4202182571393L198.84310810124038,147.20968218051144L199.50410194206856,148.00303540804666L200.16509578289677,148.79930561370418L200.82608962372495,149.59136240651833L201.48708346455317,150.38374330801275L202.14807730538135,151.1850047873463L202.80907114620956,151.9787469452978L203.47006498703774,152.77462822053903L204.13105882786596,153.5679814480742L204.79205266869414,154.35887144963948L205.45304650952232,155.1528080727991L206.11404035035054,155.93929019631284L206.77503419117875,156.72894858489315L207.43602803200693,157.52495950360645L208.09702187283514,158.31163609232834L208.75801571366335,159.10790629798586L209.41900955449154,159.89497181712406L210.08000339531975,160.68903808375583L210.74099723614793,161.47480716817302L211.40199107697615,162.26090036127042L212.06298491780436,163.04252085458032L212.7239787586325,163.83367014308976L213.38497259946072,164.61678153632883L214.04596644028894,165.39399415158718L214.70696028111715,166.18553237051296L215.3679541219453,166.96203194667476L216.02894796277351,167.74825478324425L216.68994180360173,168.52870848530523L217.3509356444299,169.30877325694985L218.01192948525812,170.08708784172111L218.67292332608633,170.86209651795372L219.33391716691455,171.64734702848247L219.9949110077427,172.41885533096826L220.6559048485709,173.19431775935325" style="fill: none;" fill="none"></path></g></g></g></g></g><g><g opacity="0.159396"><span fill="rgb(0, 0, 0)" stroke="none" stroke-width="1px">Alt + Scroll to Zoom</span></g></g></g><g transform="translate(41, 377)" clip-path="url(#clip_1)"><clipPath id="clip_1"><rect width="846" height="23"></rect></clipPath><g><g><line x1="23.018746440939555" y1="0" x2="23.018746440939555" y2="5" style="visibility: inherit;" fill="rgb(0, 0, 0)" stroke="rgb(204, 204, 204)" stroke-width="1px"></line><line x1="89.1181305237594" y1="0" x2="89.1181305237594" y2="5" style="visibility: inherit;" fill="rgb(0, 0, 0)" stroke="rgb(204, 204, 204)" stroke-width="1px"></line><line x1="155.21751460657924" y1="0" x2="155.21751460657924" y2="5" style="visibility: inherit;" fill="rgb(0, 0, 0)" stroke="rgb(204, 204, 204)" stroke-width="1px"></line><line x1="221.31689868939912" y1="0" x2="221.31689868939912" y2="5" style="visibility: inherit;" fill="rgb(0, 0, 0)" stroke="rgb(204, 204, 204)" stroke-width="1px"></line><line x1="287.41628277221895" y1="0" x2="287.41628277221895" y2="5" style="visibility: inherit;" fill="rgb(0, 0, 0)" stroke="rgb(204, 204, 204)" stroke-width="1px"></line><line x1="353.5156668550388" y1="0" x2="353.5156668550388" y2="5" style="visibility: inherit;" fill="rgb(0, 0, 0)" stroke="rgb(204, 204, 204)" stroke-width="1px"></line><line x1="419.61505093785865" y1="0" x2="419.61505093785865" y2="5" style="visibility: inherit;" fill="rgb(0, 0, 0)" stroke="rgb(204, 204, 204)" stroke-width="1px"></line><line x1="485.71443502067854" y1="0" x2="485.71443502067854" y2="5" style="visibility: inherit;" fill="rgb(0, 0, 0)" stroke="rgb(204, 204, 204)" stroke-width="1px"></line><line x1="551.8138191034983" y1="0" x2="551.8138191034983" y2="5" style="visibility: inherit;" fill="rgb(0, 0, 0)" stroke="rgb(204, 204, 204)" stroke-width="1px"></line><line x1="617.9132031863182" y1="0" x2="617.9132031863182" y2="5" style="visibility: inherit;" fill="rgb(0, 0, 0)" stroke="rgb(204, 204, 204)" stroke-width="1px"></line><line x1="684.0125872691381" y1="0" x2="684.0125872691381" y2="5" style="visibility: inherit;" fill="rgb(0, 0, 0)" stroke="rgb(204, 204, 204)" stroke-width="1px"></line><line x1="750.1119713519579" y1="0" x2="750.1119713519579" y2="5" style="visibility: inherit;" fill="rgb(0, 0, 0)" stroke="rgb(204, 204, 204)" stroke-width="1px"></line><line x1="816.2113554347777" y1="0" x2="816.2113554347777" y2="5" style="visibility: inherit;" fill="rgb(0, 0, 0)" stroke="rgb(204, 204, 204)" stroke-width="1px"></line></g><g transform="translate(0, 8)"><text x="23.018746440939555" y="0" dx="0em" dy="0.95em" style="text-anchor: middle; visibility: inherit; font-family: Roboto, sans-serif; font-size: 12px; font-weight: 200;" fill="rgb(33, 33, 33)" stroke="none" stroke-width="1px">-200</text><text x="89.1181305237594" y="0" dx="0em" dy="0.95em" style="text-anchor: middle; visibility: inherit; font-family: Roboto, sans-serif; font-size: 12px; font-weight: 200;" fill="rgb(33, 33, 33)" stroke="none" stroke-width="1px">-100</text><text x="155.21751460657924" y="0" dx="0em" dy="0.95em" style="text-anchor: middle; visibility: inherit; font-family: Roboto, sans-serif; font-size: 12px; font-weight: 200;" fill="rgb(33, 33, 33)" stroke="none" stroke-width="1px">0</text><text x="221.31689868939912" y="0" dx="0em" dy="0.95em" style="text-anchor: middle; visibility: inherit; font-family: Roboto, sans-serif; font-size: 12px; font-weight: 200;" fill="rgb(33, 33, 33)" stroke="none" stroke-width="1px">100</text><text x="287.41628277221895" y="0" dx="0em" dy="0.95em" style="text-anchor: middle; visibility: inherit; font-family: Roboto, sans-serif; font-size: 12px; font-weight: 200;" fill="rgb(33, 33, 33)" stroke="none" stroke-width="1px">200</text><text x="353.5156668550388" y="0" dx="0em" dy="0.95em" style="text-anchor: middle; visibility: inherit; font-family: Roboto, sans-serif; font-size: 12px; font-weight: 200;" fill="rgb(33, 33, 33)" stroke="none" stroke-width="1px">300</text><text x="419.61505093785865" y="0" dx="0em" dy="0.95em" style="text-anchor: middle; visibility: inherit; font-family: Roboto, sans-serif; font-size: 12px; font-weight: 200;" fill="rgb(33, 33, 33)" stroke="none" stroke-width="1px">400</text><text x="485.71443502067854" y="0" dx="0em" dy="0.95em" style="text-anchor: middle; visibility: inherit; font-family: Roboto, sans-serif; font-size: 12px; font-weight: 200;" fill="rgb(33, 33, 33)" stroke="none" stroke-width="1px">500</text><text x="551.8138191034983" y="0" dx="0em" dy="0.95em" style="text-anchor: middle; visibility: inherit; font-family: Roboto, sans-serif; font-size: 12px; font-weight: 200;" fill="rgb(33, 33, 33)" stroke="none" stroke-width="1px">600</text><text x="617.9132031863182" y="0" dx="0em" dy="0.95em" style="text-anchor: middle; visibility: inherit; font-family: Roboto, sans-serif; font-size: 12px; font-weight: 200;" fill="rgb(33, 33, 33)" stroke="none" stroke-width="1px">700</text><text x="684.0125872691381" y="0" dx="0em" dy="0.95em" style="text-anchor: middle; visibility: inherit; font-family: Roboto, sans-serif; font-size: 12px; font-weight: 200;" fill="rgb(33, 33, 33)" stroke="none" stroke-width="1px">800</text><text x="750.1119713519579" y="0" dx="0em" dy="0.95em" style="text-anchor: middle; visibility: inherit; font-family: Roboto, sans-serif; font-size: 12px; font-weight: 200;" fill="rgb(33, 33, 33)" stroke="none" stroke-width="1px">900</text><text x="816.2113554347777" y="0" dx="0em" dy="0.95em" style="text-anchor: middle; visibility: inherit; font-family: Roboto, sans-serif; font-size: 12px; font-weight: 200;" fill="rgb(33, 33, 33)" stroke="none" stroke-width="1px">1k</text></g><line x1="0" y1="0" x2="846.050125" y2="0" fill="rgb(0, 0, 0)" stroke="rgb(204, 204, 204)" stroke-width="1px"></line></g></g></g></g></svg>