<svg viewBox="0 0 887.2222290039062 400" xmlns="http://www.w3.org/2000/svg"><g><g><g><g><g><line x1="40" y1="349.8275080333833" x2="35" y2="349.8275080333833" style="visibility: inherit;" fill="rgb(0, 0, 0)" stroke="rgb(204, 204, 204)" stroke-width="1px"></line><line x1="40" y1="307.20873396133385" x2="35" y2="307.20873396133385" style="visibility: inherit;" fill="rgb(0, 0, 0)" stroke="rgb(204, 204, 204)" stroke-width="1px"></line><line x1="40" y1="264.58995988928433" x2="35" y2="264.58995988928433" style="visibility: inherit;" fill="rgb(0, 0, 0)" stroke="rgb(204, 204, 204)" stroke-width="1px"></line><line x1="40" y1="221.97118581723478" x2="35" y2="221.97118581723478" style="visibility: inherit;" fill="rgb(0, 0, 0)" stroke="rgb(204, 204, 204)" stroke-width="1px"></line><line x1="40" y1="179.35241174518532" x2="35" y2="179.35241174518532" style="visibility: inherit;" fill="rgb(0, 0, 0)" stroke="rgb(204, 204, 204)" stroke-width="1px"></line><line x1="40" y1="136.73363767313577" x2="35" y2="136.73363767313577" style="visibility: inherit;" fill="rgb(0, 0, 0)" stroke="rgb(204, 204, 204)" stroke-width="1px"></line><line x1="40" y1="94.11486360108628" x2="35" y2="94.11486360108628" style="visibility: inherit;" fill="rgb(0, 0, 0)" stroke="rgb(204, 204, 204)" stroke-width="1px"></line><line x1="40" y1="51.49608952903679" x2="35" y2="51.49608952903679" style="visibility: inherit;" fill="rgb(0, 0, 0)" stroke="rgb(204, 204, 204)" stroke-width="1px"></line><line x1="40" y1="8.877315456987288" x2="35" y2="8.877315456987288" style="visibility: inherit;" fill="rgb(0, 0, 0)" stroke="rgb(204, 204, 204)" stroke-width="1px"></line></g><g transform="translate(30, 0)"><text x="0" y="349.8275080333833" dx="0em" dy="0.3em" style="text-anchor: end; visibility: inherit; font-family: Roboto, sans-serif; font-size: 12px; font-weight: 200;" fill="rgb(33, 33, 33)" stroke="none" stroke-width="1px">-30</text><text x="0" y="307.20873396133385" dx="0em" dy="0.3em" style="text-anchor: end; visibility: inherit; font-family: Roboto, sans-serif; font-size: 12px; font-weight: 200;" fill="rgb(33, 33, 33)" stroke="none" stroke-width="1px">-20</text><text x="0" y="264.58995988928433" dx="0em" dy="0.3em" style="text-anchor: end; visibility: inherit; font-family: Roboto, sans-serif; font-size: 12px; font-weight: 200;" fill="rgb(33, 33, 33)" stroke="none" stroke-width="1px">-10</text><text x="0" y="221.97118581723478" dx="0em" dy="0.3em" style="text-anchor: end; visibility: inherit; font-family: Roboto, sans-serif; font-size: 12px; font-weight: 200;" fill="rgb(33, 33, 33)" stroke="none" stroke-width="1px">0</text><text x="0" y="179.35241174518532" dx="0em" dy="0.3em" style="text-anchor: end; visibility: inherit; font-family: Roboto, sans-serif; font-size: 12px; font-weight: 200;" fill="rgb(33, 33, 33)" stroke="none" stroke-width="1px">10</text><text x="0" y="136.73363767313577" dx="0em" dy="0.3em" style="text-anchor: end; visibility: inherit; font-family: Roboto, sans-serif; font-size: 12px; font-weight: 200;" fill="rgb(33, 33, 33)" stroke="none" stroke-width="1px">20</text><text x="0" y="94.11486360108628" dx="0em" dy="0.3em" style="text-anchor: end; visibility: inherit; font-family: Roboto, sans-serif; font-size: 12px; font-weight: 200;" fill="rgb(33, 33, 33)" stroke="none" stroke-width="1px">30</text><text x="0" y="51.49608952903679" dx="0em" dy="0.3em" style="text-anchor: end; visibility: inherit; font-family: Roboto, sans-serif; font-size: 12px; font-weight: 200;" fill="rgb(33, 33, 33)" stroke="none" stroke-width="1px">40</text><text x="0" y="8.877315456987288" dx="0em" dy="0.3em" style="text-anchor: end; visibility: inherit; font-family: Roboto, sans-serif; font-size: 12px; font-weight: 200;" fill="rgb(33, 33, 33)" stroke="none" stroke-width="1px">50</text></g><line x1="40" y1="0" x2="40" y2="377" fill="rgb(0, 0, 0)" stroke="rgb(204, 204, 204)" stroke-width="1px"></line></g></g><g transform="translate(40, 0)" clip-path="url(#clip_0)"><clipPath id="clip_0"><rect width="847" height="377"></rect></clipPath><g><g><g><line x1="40.4727332656988" y1="0" x2="40.4727332656988" y2="377" fill="rgb(0, 0, 0)" stroke="rgb(66, 66, 66)" stroke-width="1px" opacity="0.25"></line><line x1="128.26742669531177" y1="0" x2="128.26742669531177" y2="377" fill="rgb(0, 0, 0)" stroke="rgb(66, 66, 66)" stroke-width="1px" opacity="0.25"></line><line x1="216.06212012492475" y1="0" x2="216.06212012492475" y2="377" fill="rgb(0, 0, 0)" stroke="rgb(66, 66, 66)" stroke-width="1px" opacity="0.25"></line><line x1="303.8568135545377" y1="0" x2="303.8568135545377" y2="377" fill="rgb(0, 0, 0)" stroke="rgb(66, 66, 66)" stroke-width="1px" opacity="0.25"></line><line x1="391.65150698415067" y1="0" x2="391.65150698415067" y2="377" fill="rgb(0, 0, 0)" stroke="rgb(66, 66, 66)" stroke-width="1px" opacity="0.25"></line><line x1="479.4462004137637" y1="0" x2="479.4462004137637" y2="377" fill="rgb(0, 0, 0)" stroke="rgb(66, 66, 66)" stroke-width="1px" opacity="0.25"></line><line x1="567.2408938433766" y1="0" x2="567.2408938433766" y2="377" fill="rgb(0, 0, 0)" stroke="rgb(66, 66, 66)" stroke-width="1px" opacity="0.25"></line><line x1="655.0355872729896" y1="0" x2="655.0355872729896" y2="377" fill="rgb(0, 0, 0)" stroke="rgb(66, 66, 66)" stroke-width="1px" opacity="0.25"></line><line x1="742.8302807026025" y1="0" x2="742.8302807026025" y2="377" fill="rgb(0, 0, 0)" stroke="rgb(66, 66, 66)" stroke-width="1px" opacity="0.25"></line><line x1="830.6249741322156" y1="0" x2="830.6249741322156" y2="377" fill="rgb(0, 0, 0)" stroke="rgb(66, 66, 66)" stroke-width="1px" opacity="0.25"></line></g><g><line x1="0" y1="349.8275080333833" x2="847.222" y2="349.8275080333833" fill="rgb(0, 0, 0)" stroke="rgb(66, 66, 66)" stroke-width="1px" opacity="0.25"></line><line x1="0" y1="307.20873396133385" x2="847.222" y2="307.20873396133385" fill="rgb(0, 0, 0)" stroke="rgb(66, 66, 66)" stroke-width="1px" opacity="0.25"></line><line x1="0" y1="264.58995988928433" x2="847.222" y2="264.58995988928433" fill="rgb(0, 0, 0)" stroke="rgb(66, 66, 66)" stroke-width="1px" opacity="0.25"></line><line x1="0" y1="221.97118581723478" x2="847.222" y2="221.97118581723478" fill="rgb(0, 0, 0)" stroke="rgb(66, 66, 66)" stroke-width="1px" opacity="0.25"></line><line x1="0" y1="179.35241174518532" x2="847.222" y2="179.35241174518532" fill="rgb(0, 0, 0)" stroke="rgb(66, 66, 66)" stroke-width="1px" opacity="0.25"></line><line x1="0" y1="136.73363767313577" x2="847.222" y2="136.73363767313577" fill="rgb(0, 0, 0)" stroke="rgb(66, 66, 66)" stroke-width="1px" opacity="0.25"></line><line x1="0" y1="94.11486360108628" x2="847.222" y2="94.11486360108628" fill="rgb(0, 0, 0)" stroke="rgb(66, 66, 66)" stroke-width="1px" opacity="0.25"></line><line x1="0" y1="51.49608952903679" x2="847.222" y2="51.49608952903679" fill="rgb(0, 0, 0)" stroke="rgb(66, 66, 66)" stroke-width="1px" opacity="0.25"></line><line x1="0" y1="8.877315456987288" x2="847.222" y2="8.877315456987288" fill="rgb(0, 0, 0)" stroke="rgb(66, 66, 66)" stroke-width="1px" opacity="0.25"></line></g></g></g><g><g><line x1="0" y1="221.97118581723478" x2="847.222" y2="221.97118581723478" fill="rgb(0, 0, 0)" stroke="rgb(153, 153, 153)" stroke-width="1.5px"></line></g></g><g><g><line x1="303.8568135545377" y1="0" x2="303.8568135545377" y2="377" fill="rgb(0, 0, 0)" stroke="rgb(153, 153, 153)" stroke-width="1.5px"></line></g></g><g><g><g><g><g><path stroke="rgb(51, 187, 238)" stroke-width="2px" d="M303.8568135545377,221.97118581723478L305.61270742312996,221.13510552668512L307.36860129172226,219.3228317352485L309.1244951603145,217.37054925924997L310.88038902890673,215.6967793434719L312.636282897499,213.6035543375572L314.39217676609127,211.80904767872872L316.1480706346835,209.99146162912783L317.9039645032758,208.2515036230792L319.65985837186804,206.69165329332824L321.4157522404603,205.07183973377167L323.1716461090525,203.4419083175474L324.9275399776448,201.9010675395743L326.68343384623705,200.52027066101144L328.43932771482935,199.15527717164798L330.1952215834216,197.72411316149268L331.9511154520139,196.2631205086568L333.7070093206061,194.89423189424105L335.46290318919836,193.491922866437L337.2187970577906,192.04003227992578L338.9746909263829,190.68622856320985L340.73058479497513,189.30196207707402L342.4864786635674,187.9829697476485L344.24237253215966,186.59779127834952L345.99826640075196,185.18811472940752L347.7541602693442,183.72415809182948L349.51005413793644,182.25890730899403L351.2659480065287,180.77732375862755L353.02184187512097,179.32487135431782L354.7777357437132,177.81381787116715L356.5336296123055,176.23607875409752L358.28952348089774,174.65087000985736L360.04541734949004,173.08455095521228L361.8013112180822,171.52292457312316L363.5572050866745,169.95340482677756L365.31309895526675,168.41203533207155L367.06899282385905,166.8620136047465L368.8248866924513,165.3599800024388L370.5807805610436,163.92406442991L372.3366744296358,162.4853973634523L374.09256829822806,161.00255948110117L375.8484621668203,159.57003517116195L377.6043560354126,158.11484646839122L379.36024990400483,156.68700525206933L381.1161437725971,155.29416061366976L382.87203764118937,153.89685970276906L384.62793150978166,152.5135480035436L386.3838253783739,151.15224051204274L388.13971924696614,149.7853722938402L389.8956131155584,148.3961218011417L391.65150698415067,146.99416767476478L393.4074008527429,145.58021099397834L395.1632947213352,144.17917083299378L396.91918858992744,142.7346987093575L398.67508245851974,141.29594141682858L400.430976327112,139.84723384368883L402.1868701957042,138.35138232716506L403.94276406429645,136.81077852284912L405.69865793288875,135.28596640321052L407.454551801481,133.7833102412351L409.2104456700733,132.28759230573218L410.9663395386655,130.79150957966866L412.72223340725776,129.28821629513283L414.47812727585,127.77802433660804L416.2340211444423,126.27449872434757L417.98991501303453,124.73154562660176L419.74580888162683,123.1831120167094L421.50170275021907,121.65482611595485L423.25759661881136,120.12074471037467L425.0134904874036,118.58109230947368L426.76938435599584,117.06654750268646L428.52527822458813,115.56403239250858L430.2811720931803,114.06710562248416L432.0370659617726,112.55795886533353L433.7929598303649,111.03705563596715L435.5488536989572,109.53336846405028L437.3047475675494,108.01803920711994L439.0606414361417,106.49705743808072L440.8165353047339,104.97061666395244L442.5724291733262,103.43890071694784L444.3283230419184,101.92355449795335L446.0842169105107,100.43457842396234L447.840110779103,98.95004084568697L449.5960046476953,97.46976833235128L451.3518985162875,95.98334521601552L453.1077923848798,94.52137485396968L454.863686253472,93.08300905338893" style="fill: none;" fill="none"></path></g><g><path stroke="rgb(204, 51, 17)" stroke-width="2px" d="M303.8568135545377,221.97118581723478L305.61270742312996,221.13510552668512L307.36860129172226,220.57757934495527L309.1244951603145,219.8803580309724L310.88038902890673,218.95962436078423L312.636282897499,217.85711276292335L314.39217676609127,217.00973569228103L316.1480706346835,215.95490793451123L317.9039645032758,215.13448744012305L319.65985837186804,214.4781520301004L321.4157522404603,213.59757662418912L323.1716461090525,212.86376513259574L324.9275399776448,212.11351244370584L326.68343384623705,211.44040056701556L328.43932771482935,210.66068188593965L330.1952215834216,209.76794289234903L331.9511154520139,208.83158099108093L333.7070093206061,207.88220775508717L335.46290318919836,206.833063896183L337.2187970577906,205.78338378058714L338.9746909263829,204.61261583118898L340.73058479497513,203.39474491419605L342.4864786635674,202.09910799635526L344.24237253215966,200.7177278229989L345.99826640075196,199.41303382823165L347.7541602693442,198.0297116371887L349.51005413793644,196.68615397894294L351.2659480065287,195.24194566590964L353.02184187512097,193.8242907338093L354.7777357437132,192.4446299088959L356.5336296123055,191.07189577119652L358.28952348089774,189.66561768042772L360.04541734949004,188.19019208181837L361.8013112180822,186.6516467102848L363.5572050866745,185.04317793384047L365.31309895526675,183.40596951366362L367.06899282385905,181.78828434083184L368.8248866924513,180.06534498708504L370.5807805610436,178.408934698698L372.3366744296358,176.69689398219194L374.09256829822806,175.03718963467236L375.8484621668203,173.31437694484546L377.6043560354126,171.62209378790814L379.36024990400483,169.89032173478282L381.1161437725971,168.08367396432908L382.87203764118937,166.1976716972809L384.62793150978166,164.24640070655033L386.3838253783739,162.31406990111518L388.13971924696614,160.2684869308409L389.8956131155584,158.19342305592036L391.65150698415067,156.06536116076836L393.4074008527429,153.9614716700351L395.1632947213352,151.87226843819568L396.91918858992744,149.7889598818661L398.67508245851974,147.70338644352185L400.430976327112,145.53894837432472L402.1868701957042,143.3901739117572L403.94276406429645,141.2414019322867L405.69865793288875,139.08530713352255L407.454551801481,136.9222176369197L409.2104456700733,134.76655416983934L410.9663395386655,132.54845816704793L412.72223340725776,130.33239976861526L414.47812727585,128.07109531759087L416.2340211444423,125.78648708472261L417.98991501303453,123.51882287566197L419.74580888162683,121.22865240393081L421.50170275021907,118.935984154902L423.25759661881136,116.60331038748579L425.0134904874036,114.28789147895897L426.76938435599584,111.95241455506351L428.52527822458813,109.5676160909652L430.2811720931803,107.19479153104476L432.0370659617726,104.83343004754792L433.7929598303649,102.44258945957833L435.5488536989572,100.02338945271471L437.3047475675494,97.59943225313964L439.0606414361417,95.193132282301L440.8165353047339,92.80929537929359L442.5724291733262,90.41990142625316L444.3283230419184,88.01438992024424L446.0842169105107,85.63575285911239L447.840110779103,83.24630014264632L449.5960046476953,80.86711955232096L451.3518985162875,78.48245143627078L453.1077923848798,76.08232188359707L454.863686253472,73.68727934018293L456.6195801220643,71.31695749473405L458.3754739906566,68.9557956360781L460.1313678592489,66.62287682489129L461.88726172784106,64.31245723549034L463.64315559643336,62.023789584226414L465.3990494650256,59.77496930545325L467.1549433336179,57.52748060903072L468.9108372022101,55.28125947490952L470.66673107080237,53.04993216827036L472.42262493939467,50.837540602557056L474.17851880798696,48.65691346900576L475.93441267657914,46.51151293137226L477.6903065451714,44.37394601444765" style="fill: none;" fill="none"></path></g><g><path stroke="rgb(0, 119, 187)" stroke-width="2px" d="M303.8568135545377,218.6285368156171L305.61270742312996,218.62853681561708L307.36860129172226,218.2102876123815L309.1244951603145,217.79193393411114L310.88038902890673,217.20598782128533L312.636282897499,216.8851701778863L314.39217676609127,216.65601494770007L316.1480706346835,216.53656071975954L317.9039645032758,216.2572052421399L319.65985837186804,216.07569264830778L321.4157522404603,215.92718259202763L323.1716461090525,215.7684132813553L324.9275399776448,215.60173611911702L326.68343384623705,215.4588702899076L328.43932771482935,215.27895169852184L330.1952215834216,215.0952124841465L331.9511154520139,214.8092124545876L333.7070093206061,214.46134783600823L335.46290318919836,214.12791180362842L337.2187970577906,213.78563886122035L338.9746909263829,213.415675164342L340.73058479497513,213.02176813090207L342.4864786635674,212.62538082282228L344.24237253215966,212.20919519403594L345.99826640075196,211.80939128673705L347.7541602693442,211.3752541801765L349.51005413793644,210.95759978805935L351.2659480065287,210.53952968283514L353.02184187512097,210.13568306536354L354.7777357437132,209.73049999902852L356.5336296123055,209.32409633439215L358.28952348089774,208.89005194790968L360.04541734949004,208.45658491101773L361.8013112180822,208.0111388913975L363.5572050866745,207.57900712367123L365.31309895526675,207.1590742244381L367.06899282385905,206.72735093927244L368.8248866924513,206.2623509579516L370.5807805610436,205.77752576277575L372.3366744296358,205.31694482406493L374.09256829822806,204.82685300528377L375.8484621668203,204.32964076486275L377.6043560354126,203.85555799697377L379.36024990400483,203.393325790156L381.1161437725971,202.9516404791495L382.87203764118937,202.5198728395916L384.62793150978166,202.0791930448673L386.3838253783739,201.64796713271105L388.13971924696614,201.2168785542744L389.8956131155584,200.79447384862866L391.65150698415067,200.3802380212706L393.4074008527429,199.97369585299327L395.1632947213352,199.58249829224704L396.91918858992744,199.20579286080087L398.67508245851974,198.83498508428647L400.430976327112,198.4697552862208L402.1868701957042,198.12488149857L403.94276406429645,197.7919030767979L405.69865793288875,197.46292582853536L407.454551801481,197.13774628315906L409.2104456700733,196.8232315103438L410.9663395386655,196.51886547266992L412.72223340725776,196.21732483487048L414.47812727585,195.91847395801932L416.2340211444423,195.6288215852865L417.98991501303453,195.34141075215265L419.74580888162683,195.0625824168489L421.50170275021907,194.7919579397249L423.25759661881136,194.52291685161427L425.0134904874036,194.24303348769192L426.76938435599584,193.95885056430674L428.52527822458813,193.67655312671477L430.2811720931803,193.40199316324706L432.0370659617726,193.11729186757654L433.7929598303649,192.82284659599853L435.5488536989572,192.5304468557723L437.3047475675494,192.24564552476278L439.0606414361417,191.95145305177422L440.8165353047339,191.65371617998855L442.5724291733262,191.3634265555967L444.3283230419184,191.08030835456103L446.0842169105107,190.79348976452798L447.840110779103,190.51358629459398L449.5960046476953,190.23516747082155L451.3518985162875,189.95305333793073L453.1077923848798,189.6724359017782L454.863686253472,189.3932611525044L456.6195801220643,189.12043524336008L458.3754739906566,188.84883979603333L460.1313678592489,188.58328374562402L461.88726172784106,188.32356799106492L463.64315559643336,188.0742535530465L465.3990494650256,187.82089903422352L467.1549433336179,187.55897397950858L468.9108372022101,187.2933506235651L470.66673107080237,187.02414023461623L472.42262493939467,186.76048479743037L474.17851880798696,186.502214262383L475.93441267657914,186.23587317227322L477.6903065451714,185.97486321427135" style="fill: none;" fill="none"></path></g><g><path stroke="rgb(255, 112, 67)" stroke-width="2px" d="M303.8568135545377,219.04636790906588L305.61270742312996,218.62832779556035L307.36860129172226,217.9313155332398L309.1244951603145,217.16435121386792L310.88038902890673,216.45297232340084L312.636282897499,215.8390944952067L314.39217676609127,215.52034970224437L316.1480706346835,215.1764674624571L317.9039645032758,214.8157804196422L319.65985837186804,214.23343084559346L321.4157522404603,213.6424390324572L323.1716461090525,213.00990204328355L324.9275399776448,212.37767696430993L326.68343384623705,211.71561277677736L328.43932771482935,211.0015705317655L330.1952215834216,210.29785260827308L331.9511154520139,209.65215118505557L333.7070093206061,208.98455284421902L335.46290318919836,208.25409163832327L337.2187970577906,207.57558793029284L338.9746909263829,206.8411271519294L340.73058479497513,206.1158603895823L342.4864786635674,205.43529554259723L344.24237253215966,204.75861475038442L345.99826640075196,204.08532692851645L347.7541602693442,203.3987442636289L349.51005413793644,202.71599025507157L351.2659480065287,201.9610074321771L353.02184187512097,201.21426370333523L354.7777357437132,200.4607833636832L356.5336296123055,199.72855484829105L358.28952348089774,199.04209416532655L360.04541734949004,198.32004896010267L361.8013112180822,197.60300139304002L363.5572050866745,196.87836305288326L365.31309895526675,196.18217555942462L367.06899282385905,195.5121265510486L368.8248866924513,194.84374627710653L370.5807805610436,194.23148298971944L372.3366744296358,193.61788403106638L374.09256829822806,192.99263565015258L375.8484621668203,192.38701136724018L377.6043560354126,191.81948220377504L379.36024990400483,191.2777537066347L381.1161437725971,190.7411238924804L382.87203764118937,190.2278296628203L384.62793150978166,189.7454776812604L386.3838253783739,189.2386720623607L388.13971924696614,188.75255627977427L389.8956131155584,188.28588894328516L391.65150698415067,187.8207273136042L393.4074008527429,187.3487345301119L395.1632947213352,186.8945567350398L396.91918858992744,186.4413151363767L398.67508245851974,185.97334315857125L400.430976327112,185.51442016893498L402.1868701957042,185.04899103813491L403.94276406429645,184.5922041836516L405.69865793288875,184.12174859727722L407.454551801481,183.6382938586654L409.2104456700733,183.1495228387725L410.9663395386655,182.66957656105083L412.72223340725776,182.19119135531838L414.47812727585,181.72776055786198L416.2340211444423,181.27859396516163L417.98991501303453,180.8365044807691L419.74580888162683,180.38828309006732L421.50170275021907,179.95324954384486L423.25759661881136,179.51203905764348L425.0134904874036,179.0587299957001L426.76938435599584,178.6060085140518L428.52527822458813,178.1718795989506L430.2811720931803,177.73185280880475L432.0370659617726,177.29786878767592L433.7929598303649,176.85812334454718L435.5488536989572,176.41283577183881L437.3047475675494,175.97911960885165L439.0606414361417,175.55652980128247L440.8165353047339,175.13364784219092L442.5724291733262,174.69961535729954L444.3283230419184,174.27630537310384L446.0842169105107,173.83149732506598L447.840110779103,173.39741348103752L449.5960046476953,172.96330372219012L451.3518985162875,172.5291641504491L453.1077923848798,172.10005885621305L454.863686253472,171.65576305433973L456.6195801220643,171.206698157967L458.3754739906566,170.75792221121625L460.1313678592489,170.31427326069257L461.88726172784106,169.88038135061558L463.64315559643336,169.432170851895L465.3990494650256,168.99360601912355L467.1549433336179,168.56437901177532L468.9108372022101,168.1257619738696L470.66673107080237,167.69628959673497L472.42262493939467,167.27567905568267L474.17851880798696,166.85918527141436L475.93441267657914,166.4466814718851L477.6903065451714,166.03804578532137" style="fill: none;" fill="none"></path></g></g></g></g><g opacity="0.2"><g><g><g><path stroke="rgb(51, 187, 238)" stroke-width="2px" d="M303.8568135545377,221.97118581723478L305.61270742312996,220.29986131642596L307.36860129172226,215.70371916147587L309.1244951603145,211.52540771893297L310.88038902890673,209.01842065018505L312.636282897499,203.16878584995794L314.39217676609127,201.07962962063112L316.1480706346835,197.31915003362008L317.9039645032758,194.3943321254511L319.65985837186804,192.72300673554537L321.4157522404603,188.9625271485343L323.1716461090525,185.61988043316578L324.9275399776448,183.53072420383896L326.68343384623705,182.6950625249968L328.43932771482935,180.1880734240274L330.1952215834216,176.42759383701636L331.9511154520139,173.08494305720484L333.7070093206061,171.83145257116317L335.46290318919836,168.48880179135162L337.2187970577906,164.72832220434057L338.9746909263829,163.89266052549846L340.73058479497513,160.5500097456869L342.4864786635674,159.29651925964524L344.24237253215966,155.11820680099163L345.99826640075196,151.77555602118008L347.7541602693442,147.59724356252642L349.51005413793644,144.67242971880054L351.2659480065287,141.32978300343203L353.02184187512097,139.24062677410518L354.7777357437132,134.64448144380898L356.5336296123055,129.63051137075624L358.28952348089774,126.28785652650168L360.04541734949004,123.78087555441836L361.8013112180822,120.85605358180638L363.5572050866745,117.51340686643786L365.31309895526675,115.42425063711103L367.06899282385905,112.08160392174257L368.8248866924513,110.82810530681485L370.5807805610436,110.41028056405831L372.3366744296358,107.48545859144633L374.09256829822806,102.8893132611501L375.8484621668203,102.053655646751L377.6043560354126,98.29317605973995L379.36024990400483,96.62185270205569L381.1161437725971,95.36835408712797L382.87203764118937,92.44354024340203L384.62793150978166,90.3543840140752L386.3838253783739,88.68306065639099L388.13971924696614,85.75823868377901L389.8956131155584,81.99776722565396L391.65150698415067,78.65510425251337L393.4074008527429,75.3124575371449L395.1632947213352,73.22330130781808L396.91918858992744,68.20933936365138L398.67508245851974,65.70234213379594L400.430976327112,62.35969541842743L402.1868701957042,56.927892473732086L403.94276406429645,51.49608952903679L405.69865793288875,49.406933299709955L407.454551801481,47.73560181313966L409.2104456700733,45.2286208410563L410.9663395386655,42.30379886844436L412.72223340725776,38.96115215307585L414.47812727585,35.618505437707334L416.2340211444423,33.111524465624015L417.98991501303453,27.679721520928673L419.74580888162683,24.337074805560164L421.50170275021907,22.665743318989907L423.25759661881136,19.323096603621394L425.0134904874036,15.980449888252885L426.76938435599584,14.72694314443912L428.52527822458813,12.637803172884414L430.2811720931803,10.13080594302897L432.0370659617726,6.370334484903925L433.7929598303649,2.609846769006798L435.5488536989572,0.9385315402086244L437.3047475675494,-2.821956175688544" style="fill: none;" fill="none"></path></g><g><path stroke="rgb(204, 51, 17)" stroke-width="2px" d="M303.8568135545377,221.97118581723478L305.61270742312996,220.29986131642596L307.36860129172226,219.46419900251462L309.1244951603145,217.79287462871963L310.88038902890673,215.28588781399944L312.636282897499,212.36107041388587L314.39217676609127,211.94323855835407L316.1480706346835,208.600589810764L317.9039645032758,208.600589810764L319.65985837186804,208.600589810764L321.4157522404603,204.8401092076422L323.1716461090525,204.8401092076422L324.9275399776448,203.16878584995794L326.68343384623705,202.75095501053687L328.43932771482935,199.82613710236794L330.1952215834216,196.4834883547779L331.9511154520139,193.97650128603004L333.7070093206061,191.8873450567032L335.46290318919836,188.12686546969215L337.2187970577906,186.03770924036533L338.9746909263829,181.4415679745121L340.73058479497513,178.09891719470062L342.4864786635674,173.92060880049L344.24237253215966,169.32446347019376L345.99826640075196,168.48880179135162L347.7541602693442,163.89266052549846L349.51005413793644,162.2213371678142L351.2659480065287,156.7895301586759L353.02184187512097,154.70037392934904L354.7777357437132,153.02905463610782L356.5336296123055,150.5220655351384L358.28952348089774,146.76158594812733L360.04541734949004,141.74760774618855L361.8013112180822,136.73363767313577L363.5572050866745,131.3018347284405L365.31309895526675,127.12352226978683L367.06899282385905,124.61653316881743L368.8248866924513,117.51340686643786L370.5807805610436,116.67774112315271L372.3366744296358,111.24593817845742L374.09256829822806,109.99244769241574L375.8484621668203,104.14281187607781L377.6043560354126,102.053655646751L379.36024990400483,97.03967744481223L381.1161437725971,90.3543840140752L382.87203764118937,83.25125771169564L384.62793150978166,76.56596428095867L386.3838253783739,73.64114230834669L388.13971924696614,64.44885164775425L389.8956131155584,59.01704870305892L391.65150698415067,52.331755272321935L393.4074008527429,49.406933299709955L395.1632947213352,46.064286584341446L396.91918858992744,42.30379886844436L398.67508245851974,38.1254864097907L400.430976327112,29.768877750255506L402.1868701957042,26.42621477711491L403.94276406429645,22.247918576233374L405.69865793288875,17.6517651170511L407.454551801481,13.055627915640907L409.2104456700733,9.295140199743821L410.9663395386655,1.3563562829651161L412.72223340725776,-2.821956175688544" style="fill: none;" fill="none"></path></g><g><path stroke="rgb(0, 119, 187)" stroke-width="2px" d="M303.8568135545377,218.6285368156171L305.61270742312996,218.6285368156171L307.36860129172226,217.37504353527083L309.1244951603145,216.53938134837333L310.88038902890673,214.86805697457837L312.636282897499,215.28588781399944L314.39217676609127,215.28588781399944L316.1480706346835,215.70371916147587L317.9039645032758,214.03239478768086L319.65985837186804,214.45022562710193L321.4157522404603,214.45022562710193L323.1716461090525,214.03239478768086L324.9275399776448,213.61456344020442L326.68343384623705,213.61456344020442L328.43932771482935,212.7789012533069L330.1952215834216,212.36107041388587L331.9511154520139,210.27191418455902L333.7070093206061,208.600589810764L335.46290318919836,208.18275897134296L337.2187970577906,207.3470962763901L338.9746909263829,206.0936037581269L340.73058479497513,204.8401092076422L342.4864786635674,204.00444752880009L344.24237253215966,202.75095501053687L345.99826640075196,202.33312417111583L347.7541602693442,200.66179878121002L349.51005413793644,200.24396794178898L351.2659480065287,199.4083062629469L353.02184187512097,198.99047339130433L354.7777357437132,198.15481171246216L356.5336296123055,197.31915003362008L358.28952348089774,195.6478246437143L360.04541734949004,194.81216296487216L361.8013112180822,193.558670446609L363.5572050866745,193.14083960718796L365.31309895526675,192.72300673554537L367.06899282385905,191.46951421728215L368.8248866924513,189.38035798795534L370.5807805610436,187.7090325980496L372.3366744296358,187.7090325980496L374.09256829822806,185.61988043316578L375.8484621668203,184.36638588268107L377.6043560354126,184.36638588268107L379.36024990400483,183.9485530110385L381.1161437725971,183.9485530110385L382.87203764118937,183.53072420383896L384.62793150978166,182.27722965335425L386.3838253783739,181.85939678171167L388.13971924696614,181.02373510286955L389.8956131155584,180.60590629567L391.65150698415067,180.1880734240274L393.4074008527429,179.7702446168279L395.1632947213352,179.7702446168279L396.91918858992744,179.7702446168279L398.67508245851974,179.35241174518532L400.430976327112,178.93457887354276L402.1868701957042,179.35241174518532L403.94276406429645,179.35241174518532L405.69865793288875,178.93457887354276L407.454551801481,178.5167500663432L409.2104456700733,178.5167500663432L410.9663395386655,178.5167500663432L412.72223340725776,178.09891719470062L414.47812727585,177.68108838750106L416.2340211444423,177.68108838750106L417.98991501303453,177.2632555158585L419.74580888162683,177.2632555158585L421.50170275021907,177.2632555158585L423.25759661881136,176.84542670865895L425.0134904874036,175.59193215817425L426.76938435599584,174.7562704793321L428.52527822458813,174.33843760768954L430.2811720931803,174.33843760768954L432.0370659617726,173.08494305720484L433.7929598303649,171.83145257116317L435.5488536989572,171.41361969952058L437.3047475675494,171.41361969952058L439.0606414361417,170.16012514903588L440.8165353047339,169.32446347019376L442.5724291733262,169.32446347019376L444.3283230419184,169.32446347019376L446.0842169105107,168.48880179135162L447.840110779103,168.48880179135162L449.5960046476953,168.07097298415212L451.3518985162875,167.23531130530998L453.1077923848798,166.81747843366742L454.863686253472,166.39964556202483L456.6195801220643,166.39964556202483L458.3754739906566,165.98181675482527L460.1313678592489,165.98181675482527L461.88726172784106,165.98181675482527L463.64315559643336,166.39964556202483L465.3990494650256,165.56398388318271L467.1549433336179,164.31049339714102L468.9108372022101,163.47482765385587L470.66673107080237,162.63916597501375L472.42262493939467,162.63916597501375L474.17851880798696,162.63916597501375L475.93441267657914,161.38567548897205L477.6903065451714,161.38567548897205" style="fill: none;" fill="none"></path></g><g><path stroke="rgb(255, 112, 67)" stroke-width="2px" d="M303.8568135545377,219.04636790906588L305.61270742312996,218.21070572216837L307.36860129172226,216.53938134837333L309.1244951603145,214.86805697457837L310.88038902890673,213.61456344020442L312.636282897499,212.7789012533069L314.39217676609127,213.61456344020442L316.1480706346835,212.7789012533069L317.9039645032758,211.94323855835407L319.65985837186804,209.01842065018505L321.4157522404603,207.76492813192192L323.1716461090525,206.0936037581269L324.9275399776448,204.8401092076422L326.68343384623705,203.16878584995794L328.43932771482935,201.07962962063112L330.1952215834216,199.82613710236794L331.9511154520139,199.4083062629469L333.7070093206061,197.73698087304112L335.46290318919836,195.22999380429326L337.2187970577906,194.81216296487216L338.9746909263829,192.3051758961243L340.73058479497513,191.0516833778611L342.4864786635674,190.63385253844004L344.24237253215966,189.38035798795534L345.99826640075196,188.12686546969215L347.7541602693442,186.4555421120079L349.51005413793644,185.2020475615232L351.2659480065287,181.85939678171167L353.02184187512097,180.60590629567L354.7777357437132,178.93457887354276L356.5336296123055,178.09891719470062L358.28952348089774,178.09891719470062L360.04541734949004,175.59193215817425L361.8013112180822,174.33843760768954L363.5572050866745,172.66711425000528L365.31309895526675,172.2492813783627L367.06899282385905,171.83145257116317L368.8248866924513,170.57795802067847L370.5807805610436,171.41361969952058L372.3366744296358,170.16012514903588L374.09256829822806,168.48880179135162L375.8484621668203,168.07097298415212L377.6043560354126,168.48880179135162L379.36024990400483,168.48880179135162L381.1161437725971,167.65314011250953L382.87203764118937,167.65314011250953L384.62793150978166,168.07097298415212L386.3838253783739,165.98181675482527L388.13971924696614,165.98181675482527L389.8956131155584,165.98181675482527L391.65150698415067,165.14615507598316L393.4074008527429,163.89266052549846L395.1632947213352,163.89266052549846L396.91918858992744,163.0569988466563L398.67508245851974,161.38567548897205L400.430976327112,160.9678426173295L402.1868701957042,159.7143480668448L403.94276406429645,159.29651925964524L405.69865793288875,157.62519183751797L407.454551801481,155.95386847983374L409.2104456700733,154.70037392934904L410.9663395386655,154.2825451221495L412.72223340725776,153.44687937886434L414.47812727585,153.44687937886434L416.2340211444423,153.44687937886434L417.98991501303453,153.02905463610782L419.74580888162683,151.77555602118008L421.50170275021907,151.77555602118008L423.25759661881136,150.5220655351384L425.0134904874036,148.85074217745415L426.76938435599584,148.015076434169L428.52527822458813,148.43290930581156L430.2811720931803,147.1794188197699L432.0370659617726,146.76158594812733L433.7929598303649,145.5080873331996L435.5488536989572,144.25459684715796L437.3047475675494,144.25459684715796L439.0606414361417,144.25459684715796L440.8165353047339,143.41893923275885L442.5724291733262,141.74760774618855L444.3283230419184,141.74760774618855L446.0842169105107,139.24062677410518L447.840110779103,139.24062677410518L449.5960046476953,138.40496103082003L451.3518985162875,137.56930341642092L453.1077923848798,137.15147054477836L454.863686253472,135.06231431545157L456.6195801220643,133.8088238294099L458.3754739906566,132.97315808612476L460.1313678592489,132.55532521448217L461.88726172784106,132.55532521448217L463.64315559643336,130.46616898515535L465.3990494650256,130.46616898515535L467.1549433336179,130.46616898515535L468.9108372022101,128.7948456274711L470.66673107080237,128.7948456274711L472.42262493939467,128.7948456274711L474.17851880798696,128.3770127558285L475.93441267657914,127.95918801307198L477.6903065451714,127.5413551414294" style="fill: none;" fill="none"></path></g></g></g></g></g><g><g opacity="0.147946"><span fill="rgb(0, 0, 0)" stroke="none" stroke-width="1px">Alt + Scroll to Zoom</span></g></g></g><g transform="translate(40, 377)" clip-path="url(#clip_1)"><clipPath id="clip_1"><rect width="847" height="23"></rect></clipPath><g><g><line x1="40.4727332656988" y1="0" x2="40.4727332656988" y2="5" style="visibility: inherit;" fill="rgb(0, 0, 0)" stroke="rgb(204, 204, 204)" stroke-width="1px"></line><line x1="128.26742669531177" y1="0" x2="128.26742669531177" y2="5" style="visibility: inherit;" fill="rgb(0, 0, 0)" stroke="rgb(204, 204, 204)" stroke-width="1px"></line><line x1="216.06212012492475" y1="0" x2="216.06212012492475" y2="5" style="visibility: inherit;" fill="rgb(0, 0, 0)" stroke="rgb(204, 204, 204)" stroke-width="1px"></line><line x1="303.8568135545377" y1="0" x2="303.8568135545377" y2="5" style="visibility: inherit;" fill="rgb(0, 0, 0)" stroke="rgb(204, 204, 204)" stroke-width="1px"></line><line x1="391.65150698415067" y1="0" x2="391.65150698415067" y2="5" style="visibility: inherit;" fill="rgb(0, 0, 0)" stroke="rgb(204, 204, 204)" stroke-width="1px"></line><line x1="479.4462004137637" y1="0" x2="479.4462004137637" y2="5" style="visibility: inherit;" fill="rgb(0, 0, 0)" stroke="rgb(204, 204, 204)" stroke-width="1px"></line><line x1="567.2408938433766" y1="0" x2="567.2408938433766" y2="5" style="visibility: inherit;" fill="rgb(0, 0, 0)" stroke="rgb(204, 204, 204)" stroke-width="1px"></line><line x1="655.0355872729896" y1="0" x2="655.0355872729896" y2="5" style="visibility: inherit;" fill="rgb(0, 0, 0)" stroke="rgb(204, 204, 204)" stroke-width="1px"></line><line x1="742.8302807026025" y1="0" x2="742.8302807026025" y2="5" style="visibility: inherit;" fill="rgb(0, 0, 0)" stroke="rgb(204, 204, 204)" stroke-width="1px"></line><line x1="830.6249741322156" y1="0" x2="830.6249741322156" y2="5" style="visibility: inherit;" fill="rgb(0, 0, 0)" stroke="rgb(204, 204, 204)" stroke-width="1px"></line></g><g transform="translate(0, 8)"><text x="40.4727332656988" y="0" dx="0em" dy="0.95em" style="text-anchor: middle; visibility: inherit; font-family: Roboto, sans-serif; font-size: 12px; font-weight: 200;" fill="rgb(33, 33, 33)" stroke="none" stroke-width="1px">-150</text><text x="128.26742669531177" y="0" dx="0em" dy="0.95em" style="text-anchor: middle; visibility: inherit; font-family: Roboto, sans-serif; font-size: 12px; font-weight: 200;" fill="rgb(33, 33, 33)" stroke="none" stroke-width="1px">-100</text><text x="216.06212012492475" y="0" dx="0em" dy="0.95em" style="text-anchor: middle; visibility: inherit; font-family: Roboto, sans-serif; font-size: 12px; font-weight: 200;" fill="rgb(33, 33, 33)" stroke="none" stroke-width="1px">-50</text><text x="303.8568135545377" y="0" dx="0em" dy="0.95em" style="text-anchor: middle; visibility: inherit; font-family: Roboto, sans-serif; font-size: 12px; font-weight: 200;" fill="rgb(33, 33, 33)" stroke="none" stroke-width="1px">0</text><text x="391.65150698415067" y="0" dx="0em" dy="0.95em" style="text-anchor: middle; visibility: inherit; font-family: Roboto, sans-serif; font-size: 12px; font-weight: 200;" fill="rgb(33, 33, 33)" stroke="none" stroke-width="1px">50</text><text x="479.4462004137637" y="0" dx="0em" dy="0.95em" style="text-anchor: middle; visibility: inherit; font-family: Roboto, sans-serif; font-size: 12px; font-weight: 200;" fill="rgb(33, 33, 33)" stroke="none" stroke-width="1px">100</text><text x="567.2408938433766" y="0" dx="0em" dy="0.95em" style="text-anchor: middle; visibility: inherit; font-family: Roboto, sans-serif; font-size: 12px; font-weight: 200;" fill="rgb(33, 33, 33)" stroke="none" stroke-width="1px">150</text><text x="655.0355872729896" y="0" dx="0em" dy="0.95em" style="text-anchor: middle; visibility: inherit; font-family: Roboto, sans-serif; font-size: 12px; font-weight: 200;" fill="rgb(33, 33, 33)" stroke="none" stroke-width="1px">200</text><text x="742.8302807026025" y="0" dx="0em" dy="0.95em" style="text-anchor: middle; visibility: inherit; font-family: Roboto, sans-serif; font-size: 12px; font-weight: 200;" fill="rgb(33, 33, 33)" stroke="none" stroke-width="1px">250</text><text x="830.6249741322156" y="0" dx="0em" dy="0.95em" style="text-anchor: middle; visibility: inherit; font-family: Roboto, sans-serif; font-size: 12px; font-weight: 200;" fill="rgb(33, 33, 33)" stroke="none" stroke-width="1px">300</text></g><line x1="0" y1="0" x2="847.222" y2="0" fill="rgb(0, 0, 0)" stroke="rgb(204, 204, 204)" stroke-width="1px"></line></g></g></g></g></svg>